# xmcd
#
# Track frame offsets:
#	150
#	18337
#	34725
#	52850
#	69240
#
# Disc length: 1222 seconds
#
# Revision: 1
# Processed by: cddbd v1.5PL3 Copyright (c) Steve Scherf et al.
# Submitted via: CDex 1.50Beta5
#
DISCID=3204c405
DTITLE=Suite Chic - "Uh Uh......"feat.AI ï¼ baby be mine
DYEAR=2003
DGENRE=R&B -> General R&B
TTITLE0="Uh Uh......"feat.AI
TTITLE1=baby be mine
TTITLE2="Uh Uh......"feat.AI (Instrumental)
TTITLE3=baby be mine (Instrumental)
TTITLE4=GOOD LIFE feat. FIRSTKLAS (DJ KAORI Remix)
EXTD=
EXTT0=
EXTT1=
EXTT2=
EXTT3=
EXTT4=
PLAYORDER=
